<svg id="Layer_1" data-name="Layer 1" xmlns="http://www.w3.org/2000/svg" viewBox="0 0 1920.19 341.09"><defs><style>.cls-1{fill:#fdf1f1;}</style></defs><title>shape</title><path class="cls-1" d="M-660.6,197.37c-.26,8.15,2.72,13.42,8.46,18.3,14.15,12,28.48,23.82,43.23,35.07,15.81,12,32.21,23.25,48.69,34.38,16.79,11.34,34.11,21.73,51.7,31.7a682,682,0,0,0,93.64,44.08,496.15,496.15,0,0,0,80,23.49,422.58,422.58,0,0,0,46.61,6.75A405.3,405.3,0,0,0-240,392.77c19.52-.68,39-1.7,58.49-3.7,22.06-2.26,44-5,65.81-9,23.62-4.31,47-9.31,70.26-15.45,18.41-4.88,36.75-10,55-15.58q22.35-6.84,44.45-14.41Q81,325.29,107.8,315.27q39.83-14.88,79.47-30.25c18.56-7.18,37.11-14.41,55.46-22.11s36.66-14.68,55.32-21.13c22.85-7.91,46.16-14.07,70.25-16.94a215.48,215.48,0,0,1,30.24-1.94,195.82,195.82,0,0,1,64.51,12.75c19.47,7.26,37.79,16.9,55.46,27.77,22.59,13.89,44.8,28.35,66.35,43.85,18.71,13.46,38.32,25.66,57.14,39,12.12,8.57,24.47,16.64,38,22.73A184.39,184.39,0,0,0,732.29,384c13,1.68,26,3.38,39.11,2.75a411,411,0,0,0,44.9-4.41A445.46,445.46,0,0,0,870,370c18.2-5.25,35.87-12,53.48-18.91q28.5-11.25,55.8-25.11c29.89-15.22,59.31-31.3,87.57-49.48,20.78-13.37,41.51-26.76,61.88-40.76,18.46-12.69,36.42-26,54.43-39.29,14.93-11,29-23.16,43.36-34.9,10.78-8.8,21.44-17.75,32.16-26.63q0,168.5.09,337c0,3.42-.67,4.09-4.09,4.09q-956-.14-1912,0c-3.42,0-4.1-.67-4.1-4.09" transform="translate(661.46 -134.89)"/></svg>