<?xml version="1.0" encoding="utf-8"?>
<!-- Generator: Adobe Illustrator 23.0.3, SVG Export Plug-In . SVG Version: 6.00 Build 0)  -->
<svg version="1.1" id="Layer_1" xmlns="http://www.w3.org/2000/svg" xmlns:xlink="http://www.w3.org/1999/xlink" x="0px" y="0px"
	 viewBox="0 0 133.1 137" style="enable-background:new 0 0 133.1 137;" xml:space="preserve">
<style type="text/css">
	.st0{fill:#ED1C24;}
	.st1{fill:#FFFFFF;}
	.st2{fill:#666666;}
</style>
<g>
	<path class="st0" d="M62.9,75.9c2,2.4,5.3,2.4,7.4,0.1l41.2-46.7c2.1-2.3,5.1-2.1,6.8,0.6c0,0,14.8,23.7,14.8,40.5
		c0,36.5-30,66.5-66.5,66.5S0,106.9,0,70.4c0-17.6,16.2-42.2,16.2-42.2c1.7-2.6,4.8-2.8,6.7-0.4L62.9,75.9z"/>
</g>
<path class="st1" d="M102.6,86.6c0,19.9-16.2,36.1-36.1,36.1s-36.1-16.2-36.1-36.1S66.5,0,66.5,0S102.6,66.7,102.6,86.6z"/>
<g>
	<path class="st0" d="M98.3,87.2c0,17.5-14.2,31.8-31.8,31.8s-31.8-14.2-31.8-31.8S63.8,16,63.8,16c1.5-2.7,3.9-2.7,5.4,0
		C69.2,15.9,98.3,69.7,98.3,87.2z"/>
</g>
<polygon class="st1" points="89.5,77.9 74.5,77.9 74.5,62.9 58.6,62.9 58.6,77.9 43.6,77.9 43.6,93.9 58.6,93.9 58.6,108.9 
	74.5,108.9 74.5,93.9 89.5,93.9 "/>
<g>
	<g>
		<path class="st2" d="M150.5,81.5c-0.3,0-0.5-0.1-0.7-0.3c-0.2-0.2-0.3-0.5-0.3-0.7V52c0-0.3,0.1-0.6,0.3-0.8
			c0.2-0.2,0.5-0.3,0.7-0.3h10.7c2.9,0,5.4,0.5,7.3,1.4c1.9,0.9,3.3,2.2,4.3,4c1,1.8,1.5,3.9,1.5,6.5c0.1,1.3,0.1,2.4,0.1,3.4
			c0,1,0,2.1-0.1,3.4c-0.1,2.7-0.6,4.9-1.5,6.7c-0.9,1.8-2.3,3.1-4.2,3.9c-1.9,0.9-4.3,1.3-7.2,1.3H150.5z M155.5,76.5h5.6
			c1.6,0,3-0.2,4-0.7c1-0.5,1.8-1.2,2.3-2.3c0.5-1,0.7-2.4,0.8-4.1c0-0.9,0-1.6,0.1-2.3c0-0.7,0-1.3,0-2c0-0.7,0-1.4-0.1-2.3
			c-0.1-2.4-0.7-4.2-1.8-5.3c-1.1-1.1-2.9-1.7-5.4-1.7h-5.4V76.5z"/>
		<path class="st2" d="M191.9,81.9c-2.6,0-4.8-0.4-6.7-1.3c-1.9-0.9-3.3-2.2-4.4-4s-1.6-4-1.7-6.7c0-1.3,0-2.5,0-3.7s0-2.5,0-3.8
			c0.1-2.7,0.7-4.9,1.7-6.6c1.1-1.8,2.6-3.1,4.4-4c1.9-0.9,4.1-1.4,6.6-1.4s4.7,0.5,6.6,1.4c1.9,0.9,3.4,2.2,4.5,4
			c1.1,1.8,1.7,4,1.7,6.6c0.1,1.3,0.1,2.5,0.1,3.8s0,2.5-0.1,3.7c-0.1,2.7-0.7,4.9-1.7,6.7c-1,1.8-2.5,3.1-4.4,4
			C196.7,81.5,194.5,81.9,191.9,81.9z M191.9,76.9c1.9,0,3.4-0.6,4.6-1.7c1.2-1.1,1.8-3,1.9-5.5c0.1-1.3,0.1-2.5,0.1-3.6
			s0-2.3-0.1-3.5c-0.1-1.7-0.4-3.1-0.9-4.1c-0.6-1.1-1.3-1.8-2.3-2.3s-2.1-0.7-3.3-0.7c-1.2,0-2.3,0.2-3.3,0.7
			c-1,0.5-1.7,1.3-2.3,2.3c-0.6,1.1-0.9,2.4-0.9,4.1c0,1.3,0,2.4,0,3.5s0,2.3,0,3.6c0.1,2.5,0.7,4.4,1.9,5.5
			C188.5,76.4,190,76.9,191.9,76.9z"/>
		<path class="st2" d="M211.6,81.5c-0.3,0-0.5-0.1-0.7-0.3c-0.2-0.2-0.3-0.5-0.3-0.7V52c0-0.3,0.1-0.6,0.3-0.8
			c0.2-0.2,0.5-0.3,0.7-0.3h3.4c0.4,0,0.7,0.1,0.9,0.3c0.2,0.2,0.3,0.3,0.4,0.4l12.6,19.6V52c0-0.3,0.1-0.6,0.3-0.8
			c0.2-0.2,0.4-0.3,0.8-0.3h3.7c0.3,0,0.6,0.1,0.8,0.3c0.2,0.2,0.3,0.5,0.3,0.8v28.4c0,0.3-0.1,0.6-0.3,0.8
			c-0.2,0.2-0.5,0.3-0.7,0.3h-3.4c-0.4,0-0.7-0.1-0.9-0.3c-0.2-0.2-0.3-0.3-0.4-0.4l-12.5-19.1v18.8c0,0.3-0.1,0.5-0.3,0.7
			c-0.2,0.2-0.5,0.3-0.8,0.3H211.6z"/>
		<path class="st2" d="M253.2,81.9c-2.6,0-4.8-0.4-6.7-1.3c-1.9-0.9-3.3-2.2-4.4-4s-1.6-4-1.7-6.7c0-1.3,0-2.5,0-3.7s0-2.5,0-3.8
			c0.1-2.7,0.7-4.9,1.7-6.6c1.1-1.8,2.6-3.1,4.4-4c1.9-0.9,4.1-1.4,6.6-1.4s4.7,0.5,6.6,1.4c1.9,0.9,3.4,2.2,4.5,4
			c1.1,1.8,1.7,4,1.7,6.6c0.1,1.3,0.1,2.5,0.1,3.8s0,2.5-0.1,3.7c-0.1,2.7-0.7,4.9-1.7,6.7c-1,1.8-2.5,3.1-4.4,4
			C258,81.5,255.8,81.9,253.2,81.9z M253.2,76.9c1.9,0,3.4-0.6,4.6-1.7c1.2-1.1,1.8-3,1.9-5.5c0.1-1.3,0.1-2.5,0.1-3.6
			s0-2.3-0.1-3.5c-0.1-1.7-0.4-3.1-0.9-4.1c-0.6-1.1-1.3-1.8-2.3-2.3s-2.1-0.7-3.3-0.7c-1.2,0-2.3,0.2-3.3,0.7
			c-1,0.5-1.7,1.3-2.3,2.3c-0.6,1.1-0.9,2.4-0.9,4.1c0,1.3,0,2.4,0,3.5s0,2.3,0,3.6c0.1,2.5,0.7,4.4,1.9,5.5
			C249.8,76.4,251.3,76.9,253.2,76.9z"/>
		<path class="st2" d="M272.8,81.5c-0.3,0-0.5-0.1-0.7-0.3c-0.2-0.2-0.3-0.5-0.3-0.7V52c0-0.3,0.1-0.6,0.3-0.8
			c0.2-0.2,0.5-0.3,0.7-0.3h11.3c3.5,0,6.3,0.8,8.3,2.4c2,1.6,3.1,4,3.1,7.1c0,2.2-0.5,3.9-1.6,5.4c-1.1,1.4-2.5,2.5-4.3,3.1
			l6.4,11.1c0.1,0.2,0.1,0.3,0.1,0.5c0,0.3-0.1,0.5-0.3,0.7c-0.2,0.2-0.4,0.3-0.6,0.3h-4c-0.5,0-0.9-0.1-1.1-0.4
			c-0.3-0.3-0.5-0.5-0.6-0.8L283.9,70h-6.1v10.5c0,0.3-0.1,0.5-0.3,0.7c-0.2,0.2-0.4,0.3-0.8,0.3H272.8z M277.9,65h6.2
			c1.8,0,3.1-0.4,4-1.2c0.9-0.8,1.3-1.9,1.3-3.4c0-1.5-0.4-2.6-1.3-3.4s-2.2-1.2-4-1.2h-6.2V65z"/>
		<path class="st0" d="M312.3,81.5c-0.3,0-0.6-0.1-0.8-0.3c-0.2-0.2-0.3-0.5-0.3-0.7V52c0-0.3,0.1-0.6,0.3-0.8
			c0.2-0.2,0.5-0.3,0.8-0.3h3.5c0.4,0,0.7,0.1,0.9,0.3c0.2,0.2,0.3,0.4,0.4,0.5l8.4,15.7l8.5-15.7c0.1-0.1,0.2-0.3,0.4-0.5
			c0.2-0.2,0.5-0.3,0.9-0.3h3.4c0.3,0,0.6,0.1,0.8,0.3c0.2,0.2,0.3,0.5,0.3,0.8v28.5c0,0.3-0.1,0.5-0.3,0.7
			c-0.2,0.2-0.5,0.3-0.8,0.3h-3.7c-0.3,0-0.6-0.1-0.8-0.3c-0.2-0.2-0.3-0.5-0.3-0.7V61.5l-6.1,11.7c-0.1,0.3-0.3,0.5-0.6,0.7
			s-0.5,0.3-0.9,0.3h-1.8c-0.4,0-0.7-0.1-0.9-0.3s-0.4-0.4-0.5-0.7L317,61.5v18.9c0,0.3-0.1,0.5-0.3,0.7c-0.2,0.2-0.5,0.3-0.7,0.3
			H312.3z"/>
		<path class="st0" d="M347.7,81.5c-0.3,0-0.5-0.1-0.7-0.3c-0.2-0.2-0.3-0.5-0.3-0.7V52c0-0.3,0.1-0.6,0.3-0.8
			c0.2-0.2,0.5-0.3,0.7-0.3h19.2c0.3,0,0.6,0.1,0.8,0.3c0.2,0.2,0.3,0.5,0.3,0.8v2.9c0,0.3-0.1,0.5-0.3,0.7
			c-0.2,0.2-0.5,0.3-0.8,0.3h-14.4v7.7H366c0.3,0,0.6,0.1,0.8,0.3c0.2,0.2,0.3,0.4,0.3,0.8v2.7c0,0.3-0.1,0.6-0.3,0.8
			c-0.2,0.2-0.5,0.3-0.8,0.3h-13.4v8h14.7c0.3,0,0.6,0.1,0.8,0.3c0.2,0.2,0.3,0.5,0.3,0.8v2.9c0,0.3-0.1,0.5-0.3,0.7
			c-0.2,0.2-0.5,0.3-0.8,0.3H347.7z"/>
		<path class="st0" d="M374.9,81.5c-0.3,0-0.5-0.1-0.7-0.3c-0.2-0.2-0.3-0.5-0.3-0.7V52c0-0.3,0.1-0.6,0.3-0.8
			c0.2-0.2,0.5-0.3,0.7-0.3h11.3c3.5,0,6.3,0.8,8.3,2.4c2,1.6,3.1,4,3.1,7.1c0,2.2-0.5,3.9-1.6,5.4c-1.1,1.4-2.5,2.5-4.3,3.1
			l6.4,11.1c0.1,0.2,0.1,0.3,0.1,0.5c0,0.3-0.1,0.5-0.3,0.7c-0.2,0.2-0.4,0.3-0.6,0.3h-4c-0.5,0-0.9-0.1-1.1-0.4
			c-0.3-0.3-0.5-0.5-0.6-0.8L386,70h-6.1v10.5c0,0.3-0.1,0.5-0.3,0.7c-0.2,0.2-0.4,0.3-0.8,0.3H374.9z M379.9,65h6.2
			c1.8,0,3.1-0.4,4-1.2c0.9-0.8,1.3-1.9,1.3-3.4c0-1.5-0.4-2.6-1.3-3.4s-2.2-1.2-4-1.2h-6.2V65z"/>
		<path class="st0" d="M401.4,81.5c-0.2,0-0.4-0.1-0.6-0.3c-0.2-0.2-0.3-0.4-0.3-0.7c0-0.1,0-0.2,0.1-0.4L411.1,52
			c0.1-0.3,0.3-0.5,0.5-0.8c0.2-0.2,0.6-0.3,1-0.3h4.8c0.4,0,0.8,0.1,1,0.3c0.2,0.2,0.4,0.5,0.5,0.8l10.5,28.2c0,0.1,0,0.3,0,0.4
			c0,0.3-0.1,0.5-0.3,0.7c-0.2,0.2-0.4,0.3-0.6,0.3h-3.8c-0.4,0-0.7-0.1-0.9-0.3c-0.2-0.2-0.3-0.4-0.4-0.5l-2.1-5.3h-13l-2.1,5.3
			c-0.1,0.2-0.2,0.4-0.4,0.5c-0.2,0.2-0.5,0.3-0.9,0.3H401.4z M410,70.3h9.9l-5-13.5L410,70.3z"/>
		<path class="st0" d="M434.6,81.5c-0.3,0-0.5-0.1-0.7-0.3c-0.2-0.2-0.3-0.4-0.3-0.8V52c0-0.3,0.1-0.6,0.3-0.8
			c0.2-0.2,0.5-0.3,0.7-0.3h4c0.3,0,0.6,0.1,0.8,0.3c0.2,0.2,0.3,0.5,0.3,0.8v11.3h12.9V52c0-0.3,0.1-0.6,0.3-0.8
			c0.2-0.2,0.5-0.3,0.7-0.3h3.9c0.3,0,0.6,0.1,0.8,0.3c0.2,0.2,0.3,0.5,0.3,0.8v28.5c0,0.3-0.1,0.5-0.3,0.7
			c-0.2,0.2-0.5,0.3-0.8,0.3h-3.9c-0.3,0-0.5-0.1-0.7-0.3c-0.2-0.2-0.3-0.5-0.3-0.7V68.7h-12.9v11.7c0,0.3-0.1,0.5-0.3,0.7
			c-0.2,0.2-0.4,0.3-0.8,0.3H434.6z"/>
	</g>
</g>
<g>
	<g>
		<path class="st2" d="M152.5,108.9c-0.2,0-0.3-0.1-0.4-0.2s-0.2-0.2-0.2-0.4v-5.2l-5.4-9.6c0,0,0-0.1,0-0.1c0,0,0-0.1,0-0.1
			c0-0.1,0-0.3,0.1-0.3c0.1-0.1,0.2-0.1,0.3-0.1h2c0.2,0,0.3,0,0.4,0.1c0.1,0.1,0.2,0.2,0.2,0.3l3.9,6.7l3.9-6.7
			c0.1-0.1,0.1-0.2,0.3-0.3c0.1-0.1,0.3-0.1,0.4-0.1h2c0.1,0,0.3,0,0.3,0.1c0.1,0.1,0.1,0.2,0.1,0.3c0,0,0,0.1,0,0.1
			c0,0,0,0.1-0.1,0.1l-5.4,9.6v5.2c0,0.2-0.1,0.3-0.2,0.4s-0.2,0.2-0.4,0.2H152.5z"/>
		<path class="st2" d="M169.1,109.1c-1.4,0-2.5-0.2-3.5-0.7c-1-0.5-1.7-1.1-2.3-2.1s-0.8-2.1-0.9-3.5c0-0.7,0-1.3,0-1.9s0-1.3,0-2
			c0-1.4,0.4-2.5,0.9-3.5s1.3-1.6,2.3-2.1s2.1-0.7,3.4-0.7s2.5,0.2,3.5,0.7s1.8,1.2,2.3,2.1c0.6,0.9,0.9,2.1,0.9,3.5
			c0,0.7,0,1.3,0,2s0,1.3,0,1.9c0,1.4-0.3,2.6-0.9,3.5c-0.5,0.9-1.3,1.6-2.3,2.1S170.5,109.1,169.1,109.1z M169.1,106.5
			c1,0,1.8-0.3,2.4-0.9c0.6-0.6,1-1.5,1-2.9c0-0.7,0-1.3,0-1.9s0-1.2,0-1.8c0-0.9-0.2-1.6-0.5-2.2c-0.3-0.6-0.7-1-1.2-1.2
			c-0.5-0.3-1.1-0.4-1.7-0.4c-0.6,0-1.2,0.1-1.7,0.4c-0.5,0.3-0.9,0.7-1.2,1.2c-0.3,0.6-0.5,1.3-0.5,2.2c0,0.7,0,1.3,0,1.8
			s0,1.2,0,1.9c0,1.3,0.4,2.3,1,2.9C167.4,106.2,168.2,106.5,169.1,106.5z"/>
		<path class="st2" d="M185.1,109.1c-1.4,0-2.6-0.2-3.6-0.7c-1-0.5-1.7-1.2-2.3-2.1c-0.5-0.9-0.8-2-0.9-3.3c0-0.7,0-1.4,0-2.1
			c0-0.8,0-1.5,0-2.1c0-1.3,0.3-2.3,0.9-3.3c0.5-0.9,1.3-1.6,2.3-2.1s2.2-0.7,3.6-0.7c1.1,0,2.1,0.1,2.9,0.4
			c0.8,0.3,1.5,0.7,2.1,1.1c0.6,0.5,1,1,1.3,1.5s0.4,1,0.4,1.5c0,0.1,0,0.3-0.1,0.3c-0.1,0.1-0.2,0.1-0.4,0.1H189
			c-0.2,0-0.3,0-0.3-0.1c-0.1-0.1-0.1-0.2-0.2-0.3c-0.1-0.3-0.3-0.6-0.6-1c-0.3-0.3-0.6-0.6-1.1-0.8s-1-0.3-1.7-0.3
			c-1,0-1.9,0.3-2.5,0.8c-0.6,0.5-1,1.5-1,2.7c0,1.3,0,2.7,0,4c0,1.3,0.4,2.2,1,2.8s1.5,0.8,2.5,0.8c0.7,0,1.3-0.1,1.8-0.4
			s1-0.6,1.3-1.1c0.3-0.5,0.5-1.2,0.5-2v-0.7H186c-0.2,0-0.3-0.1-0.4-0.2c-0.1-0.1-0.2-0.2-0.2-0.4v-1.2c0-0.2,0.1-0.3,0.2-0.4
			c0.1-0.1,0.2-0.2,0.4-0.2h5.5c0.2,0,0.3,0.1,0.4,0.2c0.1,0.1,0.1,0.2,0.1,0.4v2.4c0,1.3-0.3,2.4-0.8,3.3s-1.4,1.6-2.4,2.2
			C187.7,108.9,186.5,109.1,185.1,109.1z"/>
		<path class="st2" d="M199.7,108.9c-0.2,0-0.3-0.1-0.4-0.2s-0.2-0.2-0.2-0.4v-5.2l-5.4-9.6c0,0,0-0.1,0-0.1c0,0,0-0.1,0-0.1
			c0-0.1,0-0.3,0.1-0.3c0.1-0.1,0.2-0.1,0.3-0.1h2c0.2,0,0.3,0,0.4,0.1c0.1,0.1,0.2,0.2,0.2,0.3l3.9,6.7l3.9-6.7
			c0.1-0.1,0.1-0.2,0.3-0.3c0.1-0.1,0.3-0.1,0.4-0.1h2c0.1,0,0.3,0,0.3,0.1c0.1,0.1,0.1,0.2,0.1,0.3c0,0,0,0.1,0,0.1
			c0,0,0,0.1-0.1,0.1l-5.4,9.6v5.2c0,0.2-0.1,0.3-0.2,0.4s-0.2,0.2-0.4,0.2H199.7z"/>
		<path class="st2" d="M209.1,108.9c-0.1,0-0.2,0-0.3-0.1c-0.1-0.1-0.1-0.2-0.1-0.3c0-0.1,0-0.1,0-0.2l5.5-14.8
			c0-0.2,0.1-0.3,0.3-0.4c0.1-0.1,0.3-0.2,0.5-0.2h2.5c0.2,0,0.4,0.1,0.5,0.2c0.1,0.1,0.2,0.2,0.3,0.4l5.5,14.8c0,0.1,0,0.1,0,0.2
			c0,0.1,0,0.3-0.1,0.3c-0.1,0.1-0.2,0.1-0.3,0.1h-2c-0.2,0-0.4,0-0.5-0.1c-0.1-0.1-0.2-0.2-0.2-0.3l-1.1-2.8h-6.8l-1.1,2.8
			c0,0.1-0.1,0.2-0.2,0.3c-0.1,0.1-0.3,0.1-0.5,0.1H209.1z M213.7,103h5.2l-2.6-7.1L213.7,103z"/>
		<path class="st2" d="M226.5,108.9c-0.2,0-0.3-0.1-0.4-0.2s-0.2-0.2-0.2-0.4V93.5c0-0.2,0.1-0.3,0.2-0.4s0.2-0.2,0.4-0.2h2
			c0.2,0,0.3,0.1,0.4,0.2c0.1,0.1,0.2,0.2,0.2,0.4v5.4l5.2-5.5c0.1-0.1,0.2-0.2,0.3-0.3c0.1-0.1,0.3-0.1,0.6-0.1h2.3
			c0.1,0,0.2,0,0.3,0.1c0.1,0.1,0.1,0.2,0.1,0.3c0,0.1,0,0.2-0.1,0.3l-6.3,6.9l6.7,7.6c0.1,0.1,0.1,0.2,0.1,0.3c0,0.1,0,0.3-0.1,0.3
			c-0.1,0.1-0.2,0.1-0.3,0.1h-2.4c-0.3,0-0.5-0.1-0.6-0.2c-0.1-0.1-0.2-0.2-0.3-0.2l-5.5-6.1v5.9c0,0.2-0.1,0.3-0.2,0.4
			c-0.1,0.1-0.2,0.2-0.4,0.2H226.5z"/>
		<path class="st2" d="M239.4,108.9c-0.1,0-0.2,0-0.3-0.1c-0.1-0.1-0.1-0.2-0.1-0.3c0-0.1,0-0.1,0-0.2l5.5-14.8
			c0-0.2,0.1-0.3,0.3-0.4c0.1-0.1,0.3-0.2,0.5-0.2h2.5c0.2,0,0.4,0.1,0.5,0.2c0.1,0.1,0.2,0.2,0.3,0.4l5.5,14.8c0,0.1,0,0.1,0,0.2
			c0,0.1,0,0.3-0.1,0.3c-0.1,0.1-0.2,0.1-0.3,0.1h-2c-0.2,0-0.4,0-0.5-0.1c-0.1-0.1-0.2-0.2-0.2-0.3l-1.1-2.8h-6.8l-1.1,2.8
			c0,0.1-0.1,0.2-0.2,0.3c-0.1,0.1-0.3,0.1-0.5,0.1H239.4z M244,103h5.2l-2.6-7.1L244,103z"/>
		<path class="st2" d="M256.8,108.9c-0.2,0-0.3-0.1-0.4-0.2s-0.2-0.2-0.2-0.4V93.5c0-0.2,0.1-0.3,0.2-0.4s0.2-0.2,0.4-0.2h5.9
			c1.8,0,3.3,0.4,4.4,1.3c1.1,0.9,1.6,2.1,1.6,3.7c0,1.1-0.3,2.1-0.8,2.8c-0.6,0.7-1.3,1.3-2.2,1.6l3.3,5.8c0,0.1,0.1,0.2,0.1,0.3
			c0,0.1,0,0.3-0.1,0.3c-0.1,0.1-0.2,0.1-0.3,0.1h-2.1c-0.3,0-0.5-0.1-0.6-0.2c-0.1-0.1-0.2-0.3-0.3-0.4l-3-5.4h-3.2v5.5
			c0,0.2,0,0.3-0.1,0.4c-0.1,0.1-0.2,0.2-0.4,0.2H256.8z M259.5,100.3h3.2c0.9,0,1.6-0.2,2.1-0.6c0.5-0.4,0.7-1,0.7-1.8
			s-0.2-1.4-0.7-1.8c-0.5-0.4-1.1-0.7-2.1-0.7h-3.2V100.3z"/>
		<path class="st2" d="M275.8,108.9c-0.2,0-0.3-0.1-0.4-0.2s-0.2-0.2-0.2-0.4V95.7H271c-0.2,0-0.3-0.1-0.4-0.2
			c-0.1-0.1-0.2-0.2-0.2-0.4v-1.7c0-0.2,0.1-0.3,0.2-0.4s0.2-0.2,0.4-0.2h11.7c0.2,0,0.3,0.1,0.4,0.2c0.1,0.1,0.2,0.2,0.2,0.4v1.7
			c0,0.2-0.1,0.3-0.2,0.4c-0.1,0.1-0.2,0.2-0.4,0.2h-4.2v12.7c0,0.2-0.1,0.3-0.2,0.4c-0.1,0.1-0.2,0.2-0.4,0.2H275.8z"/>
		<path class="st2" d="M284.6,108.9c-0.1,0-0.2,0-0.3-0.1c-0.1-0.1-0.1-0.2-0.1-0.3c0-0.1,0-0.1,0-0.2l5.5-14.8
			c0-0.2,0.1-0.3,0.3-0.4c0.1-0.1,0.3-0.2,0.5-0.2h2.5c0.2,0,0.4,0.1,0.5,0.2c0.1,0.1,0.2,0.2,0.3,0.4l5.5,14.8c0,0.1,0,0.1,0,0.2
			c0,0.1,0,0.3-0.1,0.3c-0.1,0.1-0.2,0.1-0.3,0.1h-2c-0.2,0-0.4,0-0.5-0.1c-0.1-0.1-0.2-0.2-0.2-0.3l-1.1-2.8h-6.8l-1.1,2.8
			c0,0.1-0.1,0.2-0.2,0.3c-0.1,0.1-0.3,0.1-0.5,0.1H284.6z M289.1,103h5.2l-2.6-7.1L289.1,103z"/>
	</g>
</g>
</svg>
